<svg width="20" height="20" viewBox="0 0 20 20" fill="none" xmlns="http://www.w3.org/2000/svg">
<g id="2 User">
<path id="Stroke 1" fill-rule="evenodd" clip-rule="evenodd" d="M7.592 13.2068C11.281 13.2068 14.434 13.7658 14.434 15.9988C14.434 18.2318 11.302 18.8068 7.592 18.8068C3.902 18.8068 0.75 18.2528 0.75 16.0188C0.75 13.7848 3.881 13.2068 7.592 13.2068Z" stroke="#2948FF" stroke-width="1.5" stroke-linecap="round" stroke-linejoin="round"/>
<path id="Stroke 3" fill-rule="evenodd" clip-rule="evenodd" d="M7.59108 10.0198C5.16908 10.0198 3.20508 8.05682 3.20508 5.63482C3.20508 3.21282 5.16908 1.24982 7.59108 1.24982C10.0121 1.24982 11.9761 3.21282 11.9761 5.63482C11.9851 8.04782 10.0351 10.0108 7.62208 10.0198H7.59108Z" stroke="#2948FF" stroke-width="1.5" stroke-linecap="round" stroke-linejoin="round"/>
<path id="Stroke 5" d="M14.4844 8.88165C16.0854 8.65665 17.3184 7.28265 17.3214 5.61965C17.3214 3.98065 16.1264 2.62065 14.5594 2.36365" stroke="#2948FF" stroke-width="1.5" stroke-linecap="round" stroke-linejoin="round"/>
<path id="Stroke 7" d="M16.5957 12.7322C18.1467 12.9632 19.2297 13.5072 19.2297 14.6272C19.2297 15.3982 18.7197 15.8982 17.8957 16.2112" stroke="#2948FF" stroke-width="1.5" stroke-linecap="round" stroke-linejoin="round"/>
</g>
</svg>
