<svg width="20" height="21" viewBox="0 0 20 21" fill="none" xmlns="http://www.w3.org/2000/svg">
<mask id="mask0_457_107" style="mask-type:luminance" maskUnits="userSpaceOnUse" x="0" y="6" width="20" height="15">
<path fill-rule="evenodd" clip-rule="evenodd" d="M0 6.79413H19.9996V20.5381H0V6.79413Z" fill="white"/>
</mask>
<g mask="url(#mask0_457_107)">
<path fill-rule="evenodd" clip-rule="evenodd" d="M15.565 20.5381H4.435C1.99 20.5381 0 18.5491 0 16.1031V11.2281C0 8.78313 1.99 6.79413 4.435 6.79413H5.368C5.782 6.79413 6.118 7.13013 6.118 7.54413C6.118 7.95813 5.782 8.29413 5.368 8.29413H4.435C2.816 8.29413 1.5 9.61013 1.5 11.2281V16.1031C1.5 17.7221 2.816 19.0381 4.435 19.0381H15.565C17.183 19.0381 18.5 17.7221 18.5 16.1031V11.2191C18.5 9.60613 17.188 8.29413 15.576 8.29413H14.633C14.219 8.29413 13.883 7.95813 13.883 7.54413C13.883 7.13013 14.219 6.79413 14.633 6.79413H15.576C18.015 6.79413 20 8.77913 20 11.2191V16.1031C20 18.5491 18.01 20.5381 15.565 20.5381Z" fill="#2948FF"/>
</g>
<mask id="mask1_457_107" style="mask-type:luminance" maskUnits="userSpaceOnUse" x="9" y="0" width="2" height="14">
<path fill-rule="evenodd" clip-rule="evenodd" d="M9.25 0.00012207H10.75V13.541H9.25V0.00012207Z" fill="white"/>
</mask>
<g mask="url(#mask1_457_107)">
<path fill-rule="evenodd" clip-rule="evenodd" d="M10 13.541C9.586 13.541 9.25 13.205 9.25 12.791V0.75C9.25 0.336 9.586 0 10 0C10.414 0 10.75 0.336 10.75 0.75V12.791C10.75 13.205 10.414 13.541 10 13.541Z" fill="#2948FF"/>
</g>
<path fill-rule="evenodd" clip-rule="evenodd" d="M7.08374 4.42871C6.89274 4.42871 6.70074 4.35571 6.55474 4.20971C6.26174 3.91771 6.25974 3.44371 6.55274 3.14971L9.46774 0.22171C9.74874 -0.0612895 10.2487 -0.0612895 10.5297 0.22171L13.4457 3.14971C13.7377 3.44371 13.7367 3.91771 13.4437 4.20971C13.1497 4.50171 12.6757 4.50171 12.3837 4.20771L9.99874 1.81371L7.61474 4.20771C7.46874 4.35571 7.27574 4.42871 7.08374 4.42871Z" fill="#2948FF"/>
</svg>
