<svg width="20" height="18" viewBox="0 0 20 18" fill="none" xmlns="http://www.w3.org/2000/svg">
<path d="M4.42 14.7298C2.19 13.2698 0.75 11.0698 0.75 9.13984C0.75 5.85984 4.89 1.83984 10 1.83984C12.09 1.83984 14.03 2.50984 15.59 3.54984" stroke="#130F26" stroke-width="1.5" stroke-linecap="round" stroke-linejoin="round"/>
<path d="M17.8501 5.61035C18.7411 6.74035 19.2601 7.99035 19.2601 9.14035C19.2601 12.4204 15.1101 16.4404 10.0001 16.4404C9.09012 16.4404 8.20112 16.3104 7.37012 16.0804" stroke="#130F26" stroke-width="1.5" stroke-linecap="round" stroke-linejoin="round"/>
<path d="M7.76584 11.3672C7.17084 10.7782 6.83784 9.97518 6.84084 9.13818C6.83684 7.39318 8.24884 5.97518 9.99484 5.97218C10.8348 5.97018 11.6408 6.30318 12.2348 6.89718" stroke="#130F26" stroke-width="1.5" stroke-linecap="round" stroke-linejoin="round"/>
<path d="M13.1093 9.69922C12.8753 10.9912 11.8643 12.0042 10.5723 12.2412" stroke="#130F26" stroke-width="1.5" stroke-linecap="round" stroke-linejoin="round"/>
<path d="M17.8922 1.25L2.11816 17.024" stroke="#130F26" stroke-width="1.5" stroke-linecap="round" stroke-linejoin="round"/>
</svg>
